<svg xmlns="http://www.w3.org/2000/svg" viewBox="0 0 268 387" width="268" height="387" role="img" aria-label="Steel Type · Tools &amp; Platforms: Git 4/5, Docker 3/5, Linux 4/5, AWS 3/5, Firebase 3/5, VS Code 5/5, MySQL 4/5"><title>Steel Type · Tools &amp; Platforms: Git 4/5, Docker 3/5, Linux 4/5, AWS 3/5, Firebase 3/5, VS Code 5/5, MySQL 4/5</title><style>.hc{animation:hc 6s ease-in-out infinite}@keyframes hc{0%,100%{opacity:1}6%{opacity:.55}12%{opacity:1}}.beam{animation:bm 4s ease-in-out infinite}@keyframes bm{50%{opacity:.28}}@media (prefers-reduced-motion:reduce){*{animation:none!important}}</style><defs><clipPath id="steelc"><rect width="268" height="387" rx="20"/></clipPath><radialGradient id="steelr" cx="12%" cy="0%" r="75%"><stop offset="0" stop-color="#ee2b1f" stop-opacity=".30"/><stop offset="1" stop-color="#ee2b1f" stop-opacity="0"/></radialGradient><radialGradient id="steelh" cx="95%" cy="100%" r="75%"><stop offset="0" stop-color="#45e6d4" stop-opacity=".20"/><stop offset="1" stop-color="#45e6d4" stop-opacity="0"/></radialGradient><pattern id="steelg" width="28" height="28" patternUnits="userSpaceOnUse"><path d="M28 0H0V28" fill="none" stroke="#ffffff" stroke-opacity=".045"/></pattern></defs><g clip-path="url(#steelc)"><rect width="268" height="387" fill="#0b0d18"/></g><rect x=".5" y=".5" width="267" height="386" rx="20" fill="none" stroke="#23283b"/><defs><linearGradient id="steelbm" x1="0" y1="0" x2="0" y2="1"><stop offset="0" stop-color="#ffb43e" stop-opacity=".5"/><stop offset="1" stop-color="#ffb43e" stop-opacity="0"/></linearGradient></defs><path d="M134 96L20 369H248Z" fill="url(#steelbm)" opacity=".16" class="beam"/><rect x="91.2" y="18" width="85.5" height="18" rx="9" fill="#ffb43e" fill-opacity=".12" stroke="#ffb43e" stroke-opacity=".5"/><text x="134" y="30.5" font-family="'JetBrains Mono',ui-monospace,SFMono-Regular,Menlo,Consolas,monospace" font-size="8.5" font-weight="700" fill="#ffb43e" text-anchor="middle" letter-spacing="1.6">STEEL TYPE</text><text x="134" y="58" font-family="Sora,'Segoe UI',system-ui,-apple-system,'Helvetica Neue',Arial,sans-serif" font-size="14.5" font-weight="700" fill="#fff" text-anchor="middle">Tools &amp; Platforms</text><circle cx="134" cy="96" r="28" fill="#ffb43e" opacity=".14"/><defs><linearGradient id="steelbt" x1="0" y1="0" x2="0" y2="1"><stop offset="0" stop-color="#ffb43e"/><stop offset=".45" stop-color="#ffb43e"/><stop offset="1" stop-color="#ffb43e"/></linearGradient><linearGradient id="steelbb" x1="0" y1="0" x2="0" y2="1"><stop offset="0" stop-color="#eef1f8"/><stop offset=".58" stop-color="#cfd5e6"/><stop offset="1" stop-color="#aab1c8"/></linearGradient><radialGradient id="steelbk" cx="38%" cy="32%" r="70%"><stop offset="0" stop-color="#ffffff"/><stop offset=".55" stop-color="#d4d9e8"/><stop offset="1" stop-color="#8c93ab"/></radialGradient><clipPath id="steelbo"><circle r="20"/></clipPath></defs><g transform="translate(134 96)"><g><ellipse cy="22.8" rx="14.4" ry="2.0" fill="#000" opacity=".45"/><g clip-path="url(#steelbo)"><rect x="-20" y="-20" width="40" height="20" fill="url(#steelbt)"/><rect x="-20" y="0" width="40" height="20" fill="url(#steelbb)"/><ellipse cx="-6.8" cy="-10.4" rx="6.8" ry="4.0" fill="#fff" opacity=".42" transform="rotate(-24 -6.8 -10.4)"/><rect x="-20" y="-2.6" width="40" height="5.2" fill="#090a12"/></g><circle r="6.0" fill="#090a12"/><circle r="4.7" fill="#e7ebf5"/><circle r="3.2" fill="url(#steelbk)" stroke="#060710" stroke-width="1.0"/></g></g><g class="hc" style="animation-delay:0.00s"><rect x="20" y="138" width="228" height="26" rx="9" fill="#ffb43e" fill-opacity=".07" stroke="#ffb43e" stroke-opacity=".28"/><text x="32" y="155" font-family="'JetBrains Mono',ui-monospace,SFMono-Regular,Menlo,Consolas,monospace" font-size="11.5" font-weight="500" fill="#f4ffff" text-anchor="start">Git</text><rect x="168" y="148" width="11" height="6" rx="2" fill="#ffb43e" fill-opacity="1" stroke="#ffb43e" stroke-opacity="0.9" stroke-width=".8"/><rect x="183" y="148" width="11" height="6" rx="2" fill="#ffb43e" fill-opacity="1" stroke="#ffb43e" stroke-opacity="0.9" stroke-width=".8"/><rect x="198" y="148" width="11" height="6" rx="2" fill="#ffb43e" fill-opacity="1" stroke="#ffb43e" stroke-opacity="0.9" stroke-width=".8"/><rect x="213" y="148" width="11" height="6" rx="2" fill="#ffb43e" fill-opacity="1" stroke="#ffb43e" stroke-opacity="0.9" stroke-width=".8"/><rect x="228" y="148" width="11" height="6" rx="2" fill="#ffb43e" fill-opacity="0.14" stroke="#ffb43e" stroke-opacity="0.3" stroke-width=".8"/></g><g class="hc" style="animation-delay:0.12s"><rect x="20" y="171" width="228" height="26" rx="9" fill="#ffb43e" fill-opacity=".07" stroke="#ffb43e" stroke-opacity=".28"/><text x="32" y="188" font-family="'JetBrains Mono',ui-monospace,SFMono-Regular,Menlo,Consolas,monospace" font-size="11.5" font-weight="500" fill="#f4ffff" text-anchor="start">Docker</text><rect x="168" y="181" width="11" height="6" rx="2" fill="#ffb43e" fill-opacity="1" stroke="#ffb43e" stroke-opacity="0.9" stroke-width=".8"/><rect x="183" y="181" width="11" height="6" rx="2" fill="#ffb43e" fill-opacity="1" stroke="#ffb43e" stroke-opacity="0.9" stroke-width=".8"/><rect x="198" y="181" width="11" height="6" rx="2" fill="#ffb43e" fill-opacity="1" stroke="#ffb43e" stroke-opacity="0.9" stroke-width=".8"/><rect x="213" y="181" width="11" height="6" rx="2" fill="#ffb43e" fill-opacity="0.14" stroke="#ffb43e" stroke-opacity="0.3" stroke-width=".8"/><rect x="228" y="181" width="11" height="6" rx="2" fill="#ffb43e" fill-opacity="0.14" stroke="#ffb43e" stroke-opacity="0.3" stroke-width=".8"/></g><g class="hc" style="animation-delay:0.24s"><rect x="20" y="204" width="228" height="26" rx="9" fill="#ffb43e" fill-opacity=".07" stroke="#ffb43e" stroke-opacity=".28"/><text x="32" y="221" font-family="'JetBrains Mono',ui-monospace,SFMono-Regular,Menlo,Consolas,monospace" font-size="11.5" font-weight="500" fill="#f4ffff" text-anchor="start">Linux</text><rect x="168" y="214" width="11" height="6" rx="2" fill="#ffb43e" fill-opacity="1" stroke="#ffb43e" stroke-opacity="0.9" stroke-width=".8"/><rect x="183" y="214" width="11" height="6" rx="2" fill="#ffb43e" fill-opacity="1" stroke="#ffb43e" stroke-opacity="0.9" stroke-width=".8"/><rect x="198" y="214" width="11" height="6" rx="2" fill="#ffb43e" fill-opacity="1" stroke="#ffb43e" stroke-opacity="0.9" stroke-width=".8"/><rect x="213" y="214" width="11" height="6" rx="2" fill="#ffb43e" fill-opacity="1" stroke="#ffb43e" stroke-opacity="0.9" stroke-width=".8"/><rect x="228" y="214" width="11" height="6" rx="2" fill="#ffb43e" fill-opacity="0.14" stroke="#ffb43e" stroke-opacity="0.3" stroke-width=".8"/></g><g class="hc" style="animation-delay:0.36s"><rect x="20" y="237" width="228" height="26" rx="9" fill="#ffb43e" fill-opacity=".07" stroke="#ffb43e" stroke-opacity=".28"/><text x="32" y="254" font-family="'JetBrains Mono',ui-monospace,SFMono-Regular,Menlo,Consolas,monospace" font-size="11.5" font-weight="500" fill="#f4ffff" text-anchor="start">AWS</text><rect x="168" y="247" width="11" height="6" rx="2" fill="#ffb43e" fill-opacity="1" stroke="#ffb43e" stroke-opacity="0.9" stroke-width=".8"/><rect x="183" y="247" width="11" height="6" rx="2" fill="#ffb43e" fill-opacity="1" stroke="#ffb43e" stroke-opacity="0.9" stroke-width=".8"/><rect x="198" y="247" width="11" height="6" rx="2" fill="#ffb43e" fill-opacity="1" stroke="#ffb43e" stroke-opacity="0.9" stroke-width=".8"/><rect x="213" y="247" width="11" height="6" rx="2" fill="#ffb43e" fill-opacity="0.14" stroke="#ffb43e" stroke-opacity="0.3" stroke-width=".8"/><rect x="228" y="247" width="11" height="6" rx="2" fill="#ffb43e" fill-opacity="0.14" stroke="#ffb43e" stroke-opacity="0.3" stroke-width=".8"/></g><g class="hc" style="animation-delay:0.48s"><rect x="20" y="270" width="228" height="26" rx="9" fill="#ffb43e" fill-opacity=".07" stroke="#ffb43e" stroke-opacity=".28"/><text x="32" y="287" font-family="'JetBrains Mono',ui-monospace,SFMono-Regular,Menlo,Consolas,monospace" font-size="11.5" font-weight="500" fill="#f4ffff" text-anchor="start">Firebase</text><rect x="168" y="280" width="11" height="6" rx="2" fill="#ffb43e" fill-opacity="1" stroke="#ffb43e" stroke-opacity="0.9" stroke-width=".8"/><rect x="183" y="280" width="11" height="6" rx="2" fill="#ffb43e" fill-opacity="1" stroke="#ffb43e" stroke-opacity="0.9" stroke-width=".8"/><rect x="198" y="280" width="11" height="6" rx="2" fill="#ffb43e" fill-opacity="1" stroke="#ffb43e" stroke-opacity="0.9" stroke-width=".8"/><rect x="213" y="280" width="11" height="6" rx="2" fill="#ffb43e" fill-opacity="0.14" stroke="#ffb43e" stroke-opacity="0.3" stroke-width=".8"/><rect x="228" y="280" width="11" height="6" rx="2" fill="#ffb43e" fill-opacity="0.14" stroke="#ffb43e" stroke-opacity="0.3" stroke-width=".8"/></g><g class="hc" style="animation-delay:0.60s"><rect x="20" y="303" width="228" height="26" rx="9" fill="#ffb43e" fill-opacity=".07" stroke="#ffb43e" stroke-opacity=".28"/><text x="32" y="320" font-family="'JetBrains Mono',ui-monospace,SFMono-Regular,Menlo,Consolas,monospace" font-size="11.5" font-weight="500" fill="#f4ffff" text-anchor="start">VS Code</text><rect x="168" y="313" width="11" height="6" rx="2" fill="#ffb43e" fill-opacity="1" stroke="#ffb43e" stroke-opacity="0.9" stroke-width=".8"/><rect x="183" y="313" width="11" height="6" rx="2" fill="#ffb43e" fill-opacity="1" stroke="#ffb43e" stroke-opacity="0.9" stroke-width=".8"/><rect x="198" y="313" width="11" height="6" rx="2" fill="#ffb43e" fill-opacity="1" stroke="#ffb43e" stroke-opacity="0.9" stroke-width=".8"/><rect x="213" y="313" width="11" height="6" rx="2" fill="#ffb43e" fill-opacity="1" stroke="#ffb43e" stroke-opacity="0.9" stroke-width=".8"/><rect x="228" y="313" width="11" height="6" rx="2" fill="#ffb43e" fill-opacity="1" stroke="#ffb43e" stroke-opacity="0.9" stroke-width=".8"/></g><g class="hc" style="animation-delay:0.72s"><rect x="20" y="336" width="228" height="26" rx="9" fill="#ffb43e" fill-opacity=".07" stroke="#ffb43e" stroke-opacity=".28"/><text x="32" y="353" font-family="'JetBrains Mono',ui-monospace,SFMono-Regular,Menlo,Consolas,monospace" font-size="11.5" font-weight="500" fill="#f4ffff" text-anchor="start">MySQL</text><rect x="168" y="346" width="11" height="6" rx="2" fill="#ffb43e" fill-opacity="1" stroke="#ffb43e" stroke-opacity="0.9" stroke-width=".8"/><rect x="183" y="346" width="11" height="6" rx="2" fill="#ffb43e" fill-opacity="1" stroke="#ffb43e" stroke-opacity="0.9" stroke-width=".8"/><rect x="198" y="346" width="11" height="6" rx="2" fill="#ffb43e" fill-opacity="1" stroke="#ffb43e" stroke-opacity="0.9" stroke-width=".8"/><rect x="213" y="346" width="11" height="6" rx="2" fill="#ffb43e" fill-opacity="1" stroke="#ffb43e" stroke-opacity="0.9" stroke-width=".8"/><rect x="228" y="346" width="11" height="6" rx="2" fill="#ffb43e" fill-opacity="0.14" stroke="#ffb43e" stroke-opacity="0.3" stroke-width=".8"/></g></svg>
